<svg width="24" height="24" viewBox="0 0 24 24" fill="none" xmlns="http://www.w3.org/2000/svg">
  <path d="M12 0C5.373 0 0 5.373 0 12s5.373 12 12 12 12-5.373 12-12S18.627 0 12 0zm5.568 8.16l-1.087 1.087c-.297.297-.769.297-1.066 0L12 5.832 8.585 9.247c-.297.297-.769.297-1.066 0L6.432 8.16c-.297-.297-.297-.769 0-1.066L10.247 3.28c.533-.533 1.139-.533 1.673 0l3.815 3.814c.297.297.297.769 0 1.066zM17.568 12c0 .414-.336.75-.75.75H7.182c-.414 0-.75-.336-.75-.75s.336-.75.75-.75h9.636c.414 0 .75.336.75.75zm0 3c0 .414-.336.75-.75.75H7.182c-.414 0-.75-.336-.75-.75s.336-.75.75-.75h9.636c.414 0 .75.336.75.75zm0 3c0 .414-.336.75-.75.75h-6.636c-.414 0-.75-.336-.75-.75s.336-.75.75-.75h6.636c.414 0 .75.336.75.75z" fill="currentColor"/>
</svg>
